<svg width="116" height="116" viewBox="0 0 116 116" fill="none" xmlns="http://www.w3.org/2000/svg">
<path d="M16.1668 104.404L6.85849 0H109.141L99.8232 104.388L57.9375 116L16.1668 104.404Z" fill="#264DE4"/>
<path d="M91.8457 97.7409L99.8089 8.53642H58V107.124L91.8457 97.7409Z" fill="#2965F1"/>
<path d="M28.198 47.2587L29.3455 60.0633H58V47.2587H28.198ZM27.0559 34.1464H58V21.3415H25.8918L27.0559 34.1464ZM58 80.514L57.9438 80.5289L43.6831 76.6783L42.7716 66.4657H29.9173L31.7115 86.5711L57.9411 93.8528L58 93.8363V80.514Z" fill="#EBEBEB"/>
<path d="M57.9558 47.2587V60.0633H73.7234L72.2372 76.6701L57.9558 80.5246V93.8465L84.2063 86.5711L84.3988 84.4077L87.4076 50.697L87.7202 47.2587L90.0318 21.3415H57.9558V34.1464H75.999L74.8336 47.2587H57.9558Z" fill="white"/>
</svg>
