<svg width="286" height="162" viewBox="0 0 286 162" fill="none" xmlns="http://www.w3.org/2000/svg">
<mask id="path-1-inside-1_2003_6" fill="white">
<rect x="0.5" width="285" height="162" rx="5"/>
</mask>
<rect x="0.5" width="285" height="162" rx="5" stroke="#153E5D" stroke-width="16" mask="url(#path-1-inside-1_2003_6)"/>
<g clip-path="url(#clip0_2003_6)">
<path d="M187.234 106.951H96.1875" stroke="#153E5D" stroke-width="0.625156"/>
<path d="M76.3154 35.791H50.7471C48.8018 35.791 47.4556 36.3833 47.4556 38.7754V58.0713H68.1025L71.2275 66.4283H47.4556V86.3223C47.4556 89.3105 49.2515 90.8066 52.5381 90.8066H78.1074V95.586H44.3169C37.8872 95.586 34 92.5986 34 84.2265V44.3047C34 37.8799 34.8965 30.9985 45.6665 30.9985H76.3154V35.791Z" fill="#153E5D"/>
<path d="M249.643 35.791H224.074C222.129 35.791 220.781 36.3833 220.781 38.7754V58.0713H241.429L244.555 66.4283H220.781V86.3223C220.781 89.3105 222.579 90.8066 225.865 90.8066H251.434V95.586H217.644C211.214 95.586 207.326 92.5986 207.326 85.2676V45.3471C207.326 37.8799 208.222 30.9985 218.992 30.9985H249.643V35.791Z" fill="#153E5D"/>
<path d="M81.9883 89.7574C86.3238 90.3619 90.9614 90.8066 95.1475 90.8066C101.728 90.8066 109.202 89.0127 109.202 80.9375C109.202 67.335 80.3471 67.6319 80.3471 49.3935C80.3471 34.8881 93.0581 30.9985 102.623 30.9985C108.603 30.9985 113.685 31.6015 117.274 32.0449V36.5312C114.437 36.2344 111.896 35.791 108.904 35.791C102.176 35.791 92.9038 35.4882 92.9038 44.7582C92.9038 57.0181 122.66 56.416 122.66 77.3525C122.66 90.0571 112.343 95.586 100.382 95.586C93.6509 95.586 87.9751 95.4429 81.9883 93.9502V89.7574Z" fill="#153E5D"/>
<path d="M132.528 31.935V95.586H145.977V41.3091L132.528 31.935Z" fill="#153E5D"/>
<path d="M176.62 90.8066C173.335 90.8066 171.539 89.3105 171.539 86.3223V66.4283H195.16L192.035 58.0713H171.539V38.7754C171.539 36.3833 172.885 35.791 174.831 35.791H200.398V30.9985H169.749C158.979 30.9985 158.085 37.8799 158.085 44.3047V54.8794L167.966 61.6127L158.085 68.0425V84.2265C158.085 92.5986 161.971 95.586 168.4 95.586H200.261V90.8066H176.62Z" fill="#153E5D"/>
<path d="M103.084 123.761C103.884 123.934 104.942 124.047 105.799 124.047C107.655 124.047 108.942 122.02 108.942 119.962C108.942 117.62 107.483 115.678 105.027 115.678C104.371 115.678 103.714 115.763 103.084 115.934V123.761ZM103.084 129.819C103.084 132.217 103.084 132.933 105.77 132.933V133.446H97.7134V132.933C100.399 132.933 100.398 132.217 100.398 129.819V118.163C100.398 115.763 100.399 115.049 97.7134 115.049V114.534H105.428C109.884 114.534 112.141 117.021 112.141 119.819C112.141 121.307 111.312 125.019 106.256 125.019C105.199 125.019 104.142 124.819 103.084 124.589V129.819Z" fill="#153E5D"/>
<path d="M122.001 118.449L118.717 126.075H125.229L122.001 118.449ZM118.286 127.105L117.144 129.759C116.917 130.247 116.515 131.132 116.515 131.675C116.515 132.733 117.659 132.846 118.717 132.933V133.446H112.774V132.933C114.259 132.789 114.859 132.048 115.715 130.047L122.515 114.105H123.029L129.457 129.533C130.171 131.247 130.713 132.846 132.828 132.933V133.446H125.372V132.933C126.6 132.875 127.313 132.647 127.313 131.646C127.313 131.019 126.858 130.047 126.629 129.475L125.601 127.105H118.286Z" fill="#153E5D"/>
<path d="M141.884 123.705H142.513C145.226 123.705 148.084 122.733 148.084 119.561C148.084 117.277 146.541 115.562 144.227 115.562C143.426 115.562 142.655 115.706 141.884 115.819V123.705ZM150.255 133.446L143.828 124.618H141.884V129.819C141.884 132.217 141.884 132.933 144.57 132.933V133.446H136.513V132.933C139.198 132.933 139.198 132.217 139.198 129.819V118.163C139.198 115.763 139.198 115.049 136.513 115.049V114.534H144.713C150.284 114.534 151.283 117.791 151.283 119.449C151.283 122.19 149.084 123.732 146.598 124.247L150.284 129.389C151.683 131.332 152.712 132.733 155.312 132.933V133.446H150.255Z" fill="#153E5D"/>
<path d="M163.966 129.819C163.966 132.217 163.966 132.933 166.652 132.933V133.446H158.596V132.933C161.281 132.933 161.281 132.217 161.281 129.819V118.163C161.281 115.763 161.281 115.049 158.596 115.049V114.534H166.652V115.049C163.966 115.049 163.966 115.763 163.966 118.163V129.819Z" fill="#153E5D"/>
<path d="M183.394 120.648H182.879C182.679 117.649 180.736 115.22 177.594 115.22C175.966 115.22 174.309 116.448 174.309 118.163C174.309 122.134 184.65 122.819 184.65 128.418C184.65 131.388 182.307 133.875 178.68 133.875C177.365 133.875 176.422 133.617 175.68 133.332C174.907 133.074 174.337 132.818 173.651 132.818C172.995 132.818 172.852 133.304 172.795 133.875H172.28V127.391H172.795C173.221 131.961 176.709 132.762 178.394 132.762C180.308 132.762 182.164 131.762 182.164 129.674C182.164 125.334 172.109 124.819 172.109 119.162C172.109 116.248 174.736 114.105 177.708 114.105C178.736 114.105 179.594 114.362 180.279 114.649C180.994 114.905 181.538 115.191 181.908 115.191C182.594 115.191 182.765 114.677 182.879 114.105H183.394V120.648Z" fill="#153E5D"/>
</g>
<defs>
<clipPath id="clip0_2003_6">
<rect width="217.438" height="102.875" fill="white" transform="translate(34 31)"/>
</clipPath>
</defs>
</svg>
