<svg width="116" height="116" viewBox="0 0 116 116" fill="none" xmlns="http://www.w3.org/2000/svg">
<path d="M16.0859 104.219L6.79688 0H108.977L99.6875 104.219L57.7734 116" fill="#E34F26"/>
<path d="M58 106.938L91.7578 97.6484L99.6875 8.38281H58" fill="#EF652A"/>
<path d="M58 47.125H41.0078L39.875 33.9844H58V21.2969H57.7734H25.8281L26.0547 24.6953L29.2266 60.0391H58V47.125ZM58 80.4297H57.7734L43.5 76.5781L42.5938 66.3828H35.7969H29.9062L31.4922 86.5469L57.7734 93.7969H58V80.4297Z" fill="#EBEBEB"/>
<path d="M57.7734 47.125V60.0391H73.6328L72.0469 76.5781L57.7734 80.4297V93.7969L84.0547 86.5469L84.2812 84.2812L87.2266 50.5234L87.6797 47.125H84.0547H57.7734ZM57.7734 21.2969V29.2266V33.9844H88.8125L89.0391 31.2656L89.7188 24.6953L89.9453 21.2969H57.7734Z" fill="white"/>
</svg>
